# xmcd
#
# Track frame offsets: 
#        150
#        19399
#        37341
#        54877
#        70834
#        88763
#        114437
#        134680
#
# Disc length: 2072 seconds
#
# Revision: 0
# Processed by: cddbd v1.5.2PL0 Copyright (c) Steve Scherf et al.
# Submitted via: ExactAudioCopy v0.99pb5
#
DISCID=71081608
DTITLE=Mark Lowry - unplugged and unplanned
DYEAR=2011
DGENRE=Gospel
TTITLE0=House of Gold
TTITLE1=Going Home
TTITLE2=Promises
TTITLE3=I've Never Been Out of His Care
TTITLE4=Nothing to Prove
TTITLE5=I'm Gonna Make It
TTITLE6=Untitled Hymm
TTITLE7=In The Garden
EXTD=
EXTT0=
EXTT1=
EXTT2=
EXTT3=
EXTT4=
EXTT5=
EXTT6=
EXTT7=
PLAYORDER=
